<?xml version="1.0" encoding="UTF-8" standalone="no"?>
<!-- Created with Inkscape (http://www.inkscape.org/) -->

<svg
   xmlns:dc="http://purl.org/dc/elements/1.1/"
   xmlns:cc="http://creativecommons.org/ns#"
   xmlns:rdf="http://www.w3.org/1999/02/22-rdf-syntax-ns#"
   xmlns:svg="http://www.w3.org/2000/svg"
   xmlns="http://www.w3.org/2000/svg"
   xmlns:xlink="http://www.w3.org/1999/xlink"
   xmlns:sodipodi="http://sodipodi.sourceforge.net/DTD/sodipodi-0.dtd"
   xmlns:inkscape="http://www.inkscape.org/namespaces/inkscape"
   width="52.916668mm"
   height="108.75613mm"
   viewBox="0 0 52.916667 108.75612"
   version="1.1"
   id="svg8"
   inkscape:version="0.92.1 r15371"
   sodipodi:docname="Paris 2024.svg">
  <defs
     id="defs2">
    <clipPath
       clipPathUnits="userSpaceOnUse"
       id="clipPath56">
      <path
         inkscape:connector-curvature="0"
         d="m 784.965,2783.19 c 0.019,0.03 0.047,0.07 0.07,0.1 -0.023,-0.03 -0.051,-0.07 -0.074,-0.1 z"
         id="path54" />
    </clipPath>
    <linearGradient
       x1="0"
       y1="0"
       x2="1"
       y2="0"
       gradientUnits="userSpaceOnUse"
       gradientTransform="matrix(774.407,516.272,-516.272,774.407,643.771,2689.09)"
       spreadMethod="pad"
       id="linearGradient66">
      <stop
         style="stop-opacity:1;stop-color:#3142a0"
         offset="0"
         id="stop58" />
      <stop
         style="stop-opacity:1;stop-color:#3142a0"
         offset="0.0058"
         id="stop60" />
      <stop
         style="stop-opacity:1;stop-color:#52a5e0"
         offset="0.501236"
         id="stop62" />
      <stop
         style="stop-opacity:1;stop-color:#66c430"
         offset="1"
         id="stop64" />
    </linearGradient>
    <clipPath
       clipPathUnits="userSpaceOnUse"
       id="clipPath134">
      <path
         inkscape:connector-curvature="0"
         d="m 2693.68,2657.95 c 31.48,-19.14 615.85,89.07 615.85,89.07 -355.49,342.51 -613.11,823.9 -800.06,1353.9 -178.05,-56.11 -351.28,-129.25 -517.25,-214.7 163.9,-573.53 390.44,-1038.27 701.46,-1228.27 z"
         id="path132" />
    </clipPath>
    <clipPath
       clipPathUnits="userSpaceOnUse"
       id="clipPath202">
      <path
         inkscape:connector-curvature="0"
         d="m 866.949,2909.34 c -28.515,-41.52 -55.961,-83.52 -81.914,-126.05 28.328,42.14 55.567,84.15 81.914,126.05 z"
         id="path200" />
    </clipPath>
    <linearGradient
       x1="0"
       y1="0"
       x2="1"
       y2="0"
       gradientUnits="userSpaceOnUse"
       gradientTransform="matrix(328.04,3164.59,-3164.59,328.04,816.531,2755.07)"
       spreadMethod="pad"
       id="linearGradient212">
      <stop
         style="stop-opacity:1;stop-color:#7fd6f7"
         offset="0"
         id="stop204" />
      <stop
         style="stop-opacity:1;stop-color:#5594d6"
         offset="0.504512"
         id="stop206" />
      <stop
         style="stop-opacity:1;stop-color:#274597"
         offset="0.993372"
         id="stop208" />
      <stop
         style="stop-opacity:1;stop-color:#284496"
         offset="1"
         id="stop210" />
    </linearGradient>
    <linearGradient
       id="linearGradient3664"
       spreadMethod="pad"
       gradientTransform="matrix(39.480362,26.320274,26.320274,-39.480362,64.240312,743.59833)"
       gradientUnits="userSpaceOnUse"
       y2="0"
       x2="1"
       y1="0"
       x1="0">
      <stop
         id="stop3666"
         offset="0"
         style="stop-opacity:1;stop-color:#3134a0" />
      <stop
         id="stop3668"
         offset="0.005774"
         style="stop-opacity:1;stop-color:#3134a0" />
      <stop
         id="stop3670"
         offset="0.45161401"
         style="stop-opacity:1;stop-color:#00a2ec" />
      <stop
         id="stop3672"
         offset="0.501236"
         style="stop-opacity:1;stop-color:#00a2ec" />
      <stop
         id="stop3674"
         offset="0.66382864"
         style="stop-opacity:1;stop-color:#00a2ec" />
      <stop
         id="stop3676"
         offset="1"
         style="stop-opacity:1;stop-color:#76b71c" />
    </linearGradient>
    <linearGradient
       id="linearGradient3692"
       spreadMethod="pad"
       gradientTransform="matrix(16.785196,-76.241287,-76.241287,-16.785196,84.360871,818.36145)"
       gradientUnits="userSpaceOnUse"
       y2="0"
       x2="1"
       y1="0"
       x1="0">
      <stop
         id="stop3694"
         offset="0"
         style="stop-opacity:1;stop-color:#e20613" />
      <stop
         id="stop3696"
         offset="0.085984"
         style="stop-opacity:1;stop-color:#e20613" />
      <stop
         id="stop3698"
         offset="0.671746"
         style="stop-opacity:1;stop-color:#e80073" />
      <stop
         id="stop3700"
         offset="0.67517935"
         style="stop-opacity:1;stop-color:#e80073" />
      <stop
         id="stop3702"
         offset="1"
         style="stop-opacity:1;stop-color:#ffd000" />
    </linearGradient>
    <linearGradient
       id="linearGradient3718"
       spreadMethod="pad"
       gradientTransform="matrix(5.3143768,51.267761,51.267761,-5.3143768,68.280236,740.47845)"
       gradientUnits="userSpaceOnUse"
       y2="0"
       x2="1"
       y1="0"
       x1="0">
      <stop
         id="stop3720"
         offset="0"
         style="stop-opacity:1;stop-color:#7fdcff" />
      <stop
         id="stop3722"
         offset="0.504512"
         style="stop-opacity:1;stop-color:#009eff" />
      <stop
         id="stop3724"
         offset="0.993372"
         style="stop-opacity:1;stop-color:#1e348a" />
      <stop
         id="stop3726"
         offset="1"
         style="stop-opacity:1;stop-color:#1e348a" />
    </linearGradient>
    <linearGradient
       y2="0"
       x2="1"
       y1="0"
       x1="0"
       spreadMethod="pad"
       gradientTransform="matrix(774.407,516.272,-516.272,774.407,643.771,2689.09)"
       gradientUnits="userSpaceOnUse"
       id="linearGradient4006"
       xlink:href="#linearGradient66"
       inkscape:collect="always" />
    <linearGradient
       y2="0"
       x2="1"
       y1="0"
       x1="0"
       spreadMethod="pad"
       gradientTransform="matrix(328.04,3164.59,-3164.59,328.04,816.531,2755.07)"
       gradientUnits="userSpaceOnUse"
       id="linearGradient4008"
       xlink:href="#linearGradient212"
       inkscape:collect="always" />
  </defs>
  <sodipodi:namedview
     id="base"
     pagecolor="#ffffff"
     bordercolor="#666666"
     borderopacity="1.0"
     inkscape:pageopacity="0.0"
     inkscape:pageshadow="2"
     inkscape:zoom="0.70910507"
     inkscape:cx="105.79309"
     inkscape:cy="208.3477"
     inkscape:document-units="mm"
     inkscape:current-layer="layer1"
     showgrid="false"
     fit-margin-top="0"
     fit-margin-left="0"
     fit-margin-right="0"
     fit-margin-bottom="0"
     inkscape:pagecheckerboard="true"
     inkscape:window-width="899"
     inkscape:window-height="644"
     inkscape:window-x="712"
     inkscape:window-y="115"
     inkscape:window-maximized="0" />
  <metadata
     id="metadata5">
    <rdf:RDF>
      <cc:Work
         rdf:about="">
        <dc:format>image/svg+xml</dc:format>
        <dc:type
           rdf:resource="http://purl.org/dc/dcmitype/StillImage" />
        <dc:title></dc:title>
      </cc:Work>
    </rdf:RDF>
  </metadata>
  <g
     inkscape:label="Layer 1"
     inkscape:groupmode="layer"
     id="layer1"
     transform="translate(-43.093369,-175.23714)">
    <g
       id="g176"
       transform="matrix(0.10644818,0,0,0.10644818,43.093369,175.23714)">
      <g
         inkscape:label="Calque 1"
         id="layer1-2"
         transform="matrix(6.5841735,0,0,6.5841735,1239.2213,-1393.5291)">
        <g
           id="g4513">
          <g
             transform="matrix(1.25,0,0,-1.25,-259.08982,1236.4133)"
             id="g3652">
            <g
               id="g3654">
              <g
                 id="g3660">
                <g
                   id="g3662">
                  <path
                     inkscape:connector-curvature="0"
                     id="path3678"
                     style="fill:url(#linearGradient3664);stroke:none"
                     d="m 79.282,762.107 c -5.934,-3.641 -11.571,-8.164 -15.558,-14.419 v 0 c -10e-4,-10e-4 -0.009,-0.016 -0.011,-0.019 v 0 c -1.2,-1.886 5.216,-6.905 5.706,-6.906 v 0 c 3.692,6.049 9.043,11.539 14.969,15.253 v 0 c 6.987,4.379 15.042,7.595 23.338,8.027 v 0 c 0.043,0.002 -2.65,6.091 -5.106,6.091 v 0 c -8.345,-0.432 -16.283,-3.696 -23.338,-8.027" />
                </g>
              </g>
            </g>
          </g>
          <g
             transform="matrix(1.25,0,0,-1.25,-259.08982,1236.4133)"
             id="g3680">
            <g
               id="g3682">
              <g
                 id="g3688">
                <g
                   id="g3690">
                  <path
                     inkscape:connector-curvature="0"
                     id="path3704"
                     style="fill:url(#linearGradient3692);stroke:none"
                     d="m 82.454,817.465 c -0.409,-11.873 1.534,-68.741 17.887,-78.731 v 0 c 0.51,-0.31 9.977,1.443 9.977,1.443 v 0 C 89.547,760.19 89.394,809.46 89.23,819.447 v 0 c -0.004,0.251 -0.456,0.365 -1.125,0.365 v 0 c -1.927,0 -5.651,-0.952 -5.651,-2.347" />
                </g>
              </g>
            </g>
          </g>
          <g
             transform="matrix(1.25,0,0,-1.25,-259.08982,1236.4133)"
             id="g3706">
            <g
               id="g3708">
              <g
                 id="g3714">
                <g
                   id="g3716">
                  <path
                     inkscape:connector-curvature="0"
                     id="path3728"
                     style="fill:url(#linearGradient3718);stroke:none"
                     d="m 69.781,794.857 c -2.217,-0.171 -4.119,-1.783 -5.484,-3.375 v 0 c -1.212,-1.412 5.106,-6.093 5.106,-6.093 v 0 c 1.212,1.494 2.696,2.731 4.58,3.241 v 0 c 0.419,0.113 0.852,0.158 1.282,0.14 v 0 c 0.627,-2.857 0.458,-5.979 0.262,-8.83 v 0 c -0.23,-3.34 -0.866,-6.646 -1.699,-9.882 v 0 c -2.013,-7.813 -5.7,-15.787 -10.114,-22.374 v 0 c -1.236,-1.934 5.03,-6.927 5.701,-6.927 v 0 c 15.792,23.481 12.303,44.823 8.077,50.4 v 0 c -1.452,1.915 -3.471,3.733 -6.908,3.733 v 0 c -0.259,0 -0.526,-0.01 -0.803,-0.033" />
                </g>
              </g>
            </g>
          </g>
        </g>
      </g>
      <g
         id="g4021">
        <path
           sodipodi:nodetypes="ccczsccccccssc"
           id="path14"
           style="fill:#000000;fill-opacity:1;fill-rule:nonzero;stroke:none"
           d="m 209.164,1821.93 c -15,-7.09 -90,-5.42 -99.164,0 v 159.58 c 0,0 76.70883,7.5583 95.836,0 19.12717,-7.5583 55.828,-22.92 55.828,-78.12 0,-55.21 -43.328,-77.71 -52.5,-81.46 z M 150,2080.68 c -67.5,0 -150,-22.5 -150,-22.5 v -485 h 107.5 v 152.5 c 0,0 35,0 78.75,0 43.75,0 186.25,27.5 186.25,187.5 0,160 -155,167.5 -222.5,167.5"
           inkscape:connector-curvature="0"
           transform="matrix(0.13333333,0,0,-0.13333333,-1.2496024e-6,1021.683)" />
        <path
           id="path16"
           style="fill:#000000;fill-opacity:1;fill-rule:nonzero;stroke:none"
           d="m 540,1764.01 53.336,161.67 50,-161.67 z m -3.336,306.67 -180,-497.5 H 468.336 L 500,1670.68 H 683.336 L 720,1573.18 h 110 l -186.664,497.5 H 536.664"
           inkscape:connector-curvature="0"
           transform="matrix(0.13333333,0,0,-0.13333333,-1.2496024e-6,1021.683)" />
        <path
           id="path18"
           style="fill:#000000;fill-opacity:1;fill-rule:nonzero;stroke:none"
           d="m 992.5,1839.01 v 138.33 c 42.5,4.17 147.5,19.17 147.5,-65.83 0,-115.83 -147.5,-72.5 -147.5,-72.5 z m 261.67,77.5 c 0,119.17 -103.34,155.42 -155.42,155.42 -52.08,0 -130.422,-2.09 -217.086,-12.09 v -486.66 h 112.5 v 168.33 h 65.006 l 99.16,-168.33 h 123.34 l -115.84,190.83 c 0,0 88.34,33.33 88.34,152.5"
           inkscape:connector-curvature="0"
           transform="matrix(0.13333333,0,0,-0.13333333,-1.2496024e-6,1021.683)" />
        <path
           id="path20"
           style="fill:#000000;fill-opacity:1;fill-rule:nonzero;stroke:none"
           d="M 1344.17,1573.18 H 1455 c 0,23.33 0,498.75 0,498.75 h -110.83 v -498.75"
           inkscape:connector-curvature="0"
           transform="matrix(0.13333333,0,0,-0.13333333,-1.2496024e-6,1021.683)" />
        <path
           id="path22"
           style="fill:#000000;fill-opacity:1;fill-rule:nonzero;stroke:none"
           d="m 1748.33,1871.51 c -69.16,15 -98.33,35.83 -98.33,63.33 0,27.5 25,42.09 75.83,42.09 50.74,0 87.09,-22.58 110.23,-33.16 5.51,-2.52 12.01,-1.03 15.8,3.71 l 31.93,39.92 c 13.68,17.09 8.53,42.3 -10.71,52.73 -34.66,18.78 -89.63,43.05 -142.25,43.05 -85.83,0 -192.5,-56.67 -192.5,-156.67 0,-100 92.5,-130.83 135,-145 42.5,-14.17 125.84,-33.33 125.84,-72.5 0,-39.17 -40.84,-50 -85.41,-50 -58.04,0 -102.03,30.14 -130.6,43.62 -7.5,3.54 -16.42,0.51 -20.45,-6.74 l -26.97,-48.54 c -7.7,-13.87 -4.45,-35.27 9.68,-42.51 36.63,-18.76 82.39,-45.83 178.75,-45.83 99.16,0 175.83,50 175.83,160.83 0,110.84 -82.5,136.67 -151.67,151.67"
           inkscape:connector-curvature="0"
           transform="matrix(0.13333333,0,0,-0.13333333,-1.2496024e-6,1021.683)" />
        <path
           id="path24"
           style="fill:#000000;fill-opacity:1;fill-rule:nonzero;stroke:none"
           d="m 2417.4,1661.67 c -24.86,0.23 -97.17,0.67 -193.23,0.67 73.33,61.67 175.83,142.5 175.83,256.67 0,65 -45,164.17 -165.41,164.17 -91.28,0 -151.67,-58.42 -175.56,-86.69 -6.75,-7.98 -5.63,-19.93 2.38,-26.66 l 49.63,-46.6 c 5.68,-4.77 14.04,-4.64 19.45,0.45 16.65,15.65 52.95,52 96.18,52 80,0 62.5,-100 48.33,-114.17 -8.73,-8.72 -164.1,-173.33 -204.79,-217.1 -6.05,-6.51 -9.37,-15.03 -9.37,-23.92 v -47.31 c 0,-7.83 6.33,-14.17 14.16,-14.17 h 342.26 c 5.94,0 5.25,102.66 0.14,102.66"
           inkscape:connector-curvature="0"
           transform="matrix(0.13333333,0,0,-0.13333333,-1.2496024e-6,1021.683)" />
        <path
           id="path26"
           style="fill:#000000;fill-opacity:1;fill-rule:nonzero;stroke:none"
           d="m 3290.46,1661.67 c -24.85,0.23 -97.17,0.67 -193.23,0.67 73.33,61.67 175.83,142.5 175.83,256.67 0,65 -45,164.17 -165.41,164.17 -91.28,0 -151.67,-58.42 -175.55,-86.69 -6.75,-7.98 -5.63,-19.93 2.38,-26.66 l 49.62,-46.6 c 5.69,-4.77 14.04,-4.64 19.46,0.45 16.65,15.65 52.95,52 96.17,52 80,0 62.5,-100 48.33,-114.17 -8.72,-8.72 -164.1,-173.33 -204.78,-217.1 -6.06,-6.51 -9.38,-15.03 -9.38,-23.92 v -47.31 c 0,-7.83 6.34,-14.17 14.16,-14.17 h 342.27 c 5.93,0 5.25,102.66 0.13,102.66"
           inkscape:connector-curvature="0"
           transform="matrix(0.13333333,0,0,-0.13333333,-1.2496024e-6,1021.683)" />
        <path
           id="path28"
           style="fill:#000000;fill-opacity:1;fill-rule:nonzero;stroke:none"
           d="m 2685.42,1650.68 c -77.92,0 -95.42,112.56 -95.42,162.5 0,70.83 19.17,168.33 100,168.33 80.84,0 90.84,-96.67 90.84,-168.33 0,-71.67 -17.5,-162.5 -95.42,-162.5 z m 7.92,432.5 c -78.34,0 -214.17,-43.34 -214.17,-258.34 0,-199.16 93.33,-265.83 206.25,-265.83 112.92,0 206.25,67.5 206.25,265.83 0,198.34 -120,258.34 -198.33,258.34"
           inkscape:connector-curvature="0"
           transform="matrix(0.13333333,0,0,-0.13333333,-1.2496024e-6,1021.683)" />
        <path
           id="path30"
           style="fill:#000000;fill-opacity:1;fill-rule:nonzero;stroke:none"
           d="m 3670.84,1749.84 v 121.67 h -111.67 v -121.67 h -101.08 c -2.64,0 -4.41,2.71 -3.35,5.13 l 121.76,278.64 c 3.25,7.44 -0.44,16.1 -8.08,18.88 l -75.65,27.68 c -7.14,2.61 -15.07,-0.83 -17.99,-7.86 -23.65,-56.85 -120.08,-288.68 -128.11,-309.13 -9.17,-23.34 -15,-110.84 16.67,-110.84 31.66,0 195.83,-1.66 195.83,-1.66 v -89.17 h 105 v 89.17 h 64.17 v 99.16 h -57.5"
           inkscape:connector-curvature="0"
           transform="matrix(0.13333333,0,0,-0.13333333,-1.2496024e-6,1021.683)" />
      </g>
      <g
         id="g4010">
        <path
           id="path32"
           style="fill:#1c8b3c;fill-opacity:1;fill-rule:nonzero;stroke:none"
           d="m 2271.95,698.539 c -175.38,0 -317.52,-142.129 -317.52,-317.527 0,-175.313 142.14,-317.512 317.52,-317.512 175.38,0 317.52,142.199 317.52,317.512 0,175.398 -142.14,317.527 -317.52,317.527 m 381.01,-317.527 c 0,-210.43 -170.56,-381.0002812 -381.01,-381.0002812 -210.45,0 -381.02,170.5702812 -381.02,381.0002812 0,210.449 170.57,381.019 381.02,381.019 210.45,0 381.01,-170.57 381.01,-381.019"
           inkscape:connector-curvature="0"
           transform="matrix(0.13333333,0,0,-0.13333333,-1.2496024e-6,1021.683)" />
        <path
           id="path34"
           style="fill:#ed334e;fill-opacity:1;fill-rule:nonzero;stroke:none"
           d="m 2689.7,1047.82 c -175.38,0 -317.52,-142.14 -317.52,-317.519 0,-175.321 142.14,-317.531 317.52,-317.531 175.39,0 317.53,142.21 317.53,317.531 0,175.379 -142.14,317.519 -317.53,317.519 m 381.02,-317.519 c 0,-210.449 -170.57,-381.012 -381.02,-381.012 -210.44,0 -381,170.563 -381,381.012 0,210.441 170.56,381.009 381,381.009 210.45,0 381.02,-170.568 381.02,-381.009"
           inkscape:connector-curvature="0"
           transform="matrix(0.13333333,0,0,-0.13333333,-1.2496024e-6,1021.683)" />
        <path
           id="path36"
           style="fill:#1c8b3c;fill-opacity:1;fill-rule:nonzero;stroke:none"
           d="m 2377.71,682.211 c -22.14,7.398 -45.4,12.43 -69.5,14.801 l -4.26,33.527 4.12,30.25 c 22.84,-1.82 45.12,-5.726 66.56,-11.391 l 3.08,-67.187"
           inkscape:connector-curvature="0"
           transform="matrix(0.13333333,0,0,-0.13333333,-1.2496024e-6,1021.683)" />
        <path
           id="path38"
           style="fill:#fbb132;fill-opacity:1;fill-rule:nonzero;stroke:none"
           d="m 1451.39,698.539 c -175.38,0 -317.52,-142.129 -317.52,-317.527 0,-175.313 142.14,-317.512 317.52,-317.512 175.38,0 317.52,142.199 317.52,317.512 0,175.398 -142.14,317.527 -317.52,317.527 M 1832.4,381.012 c 0,-210.43 -170.56,-381.0002812 -381.01,-381.0002812 -210.45,0 -381.01,170.5702812 -381.01,381.0002812 0,210.449 170.56,381.019 381.01,381.019 210.45,0 381.01,-170.57 381.01,-381.019"
           inkscape:connector-curvature="0"
           transform="matrix(0.13333333,0,0,-0.13333333,-1.2496024e-6,1021.683)" />
        <path
           id="path40"
           style="fill:#0885c2;fill-opacity:1;fill-rule:nonzero;stroke:none"
           d="m 1038.63,1047.82 c -175.388,0 -317.525,-142.14 -317.525,-317.519 0,-175.321 142.137,-317.531 317.525,-317.531 175.38,0 317.52,142.21 317.52,317.531 0,175.379 -142.14,317.519 -317.52,317.519 m 381.01,-317.519 c 0,-210.449 -170.57,-381.012 -381.01,-381.012 -210.45,0 -381.017,170.563 -381.017,381.012 0,210.441 170.567,381.009 381.017,381.009 210.44,0 381.01,-170.568 381.01,-381.009"
           inkscape:connector-curvature="0"
           transform="matrix(0.13333333,0,0,-0.13333333,-1.2496024e-6,1021.683)" />
        <path
           id="path42"
           style="fill:#050606;fill-opacity:1;fill-rule:nonzero;stroke:none"
           d="m 1864.17,1047.82 c -175.39,0 -317.52,-142.14 -317.52,-317.519 0,-175.321 142.13,-317.531 317.52,-317.531 175.39,0 317.52,142.21 317.52,317.531 0,175.379 -142.13,317.519 -317.52,317.519 m 381.01,-317.519 c 0,-210.449 -170.57,-381.012 -381.01,-381.012 -210.45,0 -381.02,170.563 -381.02,381.012 0,210.441 170.57,381.009 381.02,381.009 210.44,0 381.01,-170.568 381.01,-381.009"
           inkscape:connector-curvature="0"
           transform="matrix(0.13333333,0,0,-0.13333333,-1.2496024e-6,1021.683)" />
        <path
           id="path44"
           style="fill:#fbb132;fill-opacity:1;fill-rule:nonzero;stroke:none"
           d="m 1071.88,346.84 c -1.04,11.25 -1.53,22.64 -1.53,34.172 0,12.777 0.63,25.48 1.89,37.918 l 65.79,13.48 c -2.72,-16.699 -4.19,-33.879 -4.19,-51.398 0,-7.621 0.28,-15.16 0.84,-22.711 l -62.8,-11.461"
           inkscape:connector-curvature="0"
           transform="matrix(0.13333333,0,0,-0.13333333,-1.2496024e-6,1021.683)" />
        <path
           id="path46"
           style="fill:#1c8b3c;fill-opacity:1;fill-rule:nonzero;stroke:none"
           d="m 1897.21,349.32 c -0.84,10.469 -1.33,21.02 -1.33,31.7 0,12.082 0.57,24.043 1.68,35.832 l 65.73,14.05 c -2.51,-16.273 -3.84,-32.902 -3.84,-49.882 0,-6.981 0.2,-13.961 0.62,-20.809 l -28.63,-14.879 -34.23,3.988"
           inkscape:connector-curvature="0"
           transform="matrix(0.13333333,0,0,-0.13333333,-1.2496024e-6,1021.683)" />
        <path
           id="path48"
           style="fill:#fbb132;fill-opacity:1;fill-rule:nonzero;stroke:none"
           d="m 1554.27,681.5 c -23.61,8.109 -48.47,13.492 -74.25,15.781 l -28.64,64.758 c 8.94,0 17.81,-0.348 26.61,-0.91 25.36,-1.75 49.94,-6 73.69,-12.43 l 2.59,-67.199"
           inkscape:connector-curvature="0"
           transform="matrix(0.13333333,0,0,-0.13333333,-1.2496024e-6,1021.683)" />
      </g>
      <g
         transform="matrix(0.13333333,0,0,-0.13333333,-1.2496024e-6,1021.683)"
         id="g50">
        <g
           id="g52"
           clip-path="url(#clipPath56)">
          <path
             inkscape:connector-curvature="0"
             d="m 784.965,2783.19 c 0.019,0.03 0.047,0.07 0.07,0.1 -0.023,-0.03 -0.051,-0.07 -0.074,-0.1 h 0.004"
             style="fill:url(#linearGradient4006);fill-opacity:1;fill-rule:nonzero;stroke:none"
             id="path68" />
        </g>
      </g>
      <g
         transform="matrix(0.13333333,0,0,-0.13333333,-1.2496024e-6,1021.683)"
         id="g128">
        <g
           id="g130"
           clip-path="url(#clipPath134)" />
      </g>
      <g
         transform="matrix(0.13333333,0,0,-0.13333333,-1.2496024e-6,1021.683)"
         id="g196">
        <g
           id="g198"
           clip-path="url(#clipPath202)">
          <path
             inkscape:connector-curvature="0"
             d="m 866.949,2909.34 c -28.515,-41.52 -55.961,-83.52 -81.914,-126.05 28.328,42.14 55.567,84.15 81.914,126.05"
             style="fill:url(#linearGradient4008);fill-opacity:1;fill-rule:nonzero;stroke:none"
             id="path214" />
        </g>
      </g>
    </g>
  </g>
</svg>
